# xmcd
#
# Track frame offsets: 
#        150
#        3767
#        29030
#        55243
#        82048
#        104092
#        146287
#        160293
#        175945
#        193521
#        209366
#
# Disc length: 3091 seconds
#
# Revision: 0
# Processed by: cddbd v1.5.1PL0 Copyright (c) Steve Scherf et al.
# Submitted via: ExactAudioCopy v0.95a4
#
DISCID=950c110b
DTITLE=Eric Clapton - 2004-07-30 HP Pavilion - San Jose, CA - Disc 1
DYEAR=2004
DGENRE=Blues
TTITLE0=crowd noise
TTITLE1=Let It Rain
TTITLE2=Hoochie Coochie Man
TTITLE3=Walk Out In The Rain
TTITLE4=I Wanna Little Girl
TTITLE5=I Shot The Sheriff
TTITLE6=Me And The Devil Blues
TTITLE7=They're Red Hot
TTITLE8=Milkcow's Calf Blues
TTITLE9=If I Had Possession Over Judgement Day
TTITLE10=Kind Hearted Woman
EXTD=
EXTT0=
EXTT1=
EXTT2=
EXTT3=
EXTT4=
EXTT5=
EXTT6=
EXTT7=
EXTT8=
EXTT9=
EXTT10=
PLAYORDER=
